<svg xmlns="http://www.w3.org/2000/svg" viewBox="0 0 1440 320">
    <path fill="#fff" fill-opacity="1"
        d="M0,128L30,160C60,192,120,256,180,256C240,256,300,192,360,154.7C420,117,480,107,540,112C600,117,660,139,720,128C780,117,840,75,900,80C960,85,1020,139,1080,144C1140,149,1200,107,1260,106.7C1320,107,1380,149,1410,170.7L1440,192L1440,0L1410,0C1380,0,1320,0,1260,0C1200,0,1140,0,1080,0C1020,0,960,0,900,0C840,0,780,0,720,0C660,0,600,0,540,0C480,0,420,0,360,0C300,0,240,0,180,0C120,0,60,0,30,0L0,0Z"></path>
</svg>