<svg id="wave" style="transform:rotate(0deg); transition: 0.3s" viewBox="0 0 1440 150" version="1.1"
    xmlns="http://www.w3.org/2000/svg">
    <defs>
        <linearGradient id="sw-gradient-0" x1="0" x2="0" y1="1" y2="0">
            <stop stop-color="rgba(10, 171, 215, 1)" offset="0%"></stop>
            <stop stop-color="rgba(10, 171, 215, 1)" offset="100%"></stop>
        </linearGradient>
    </defs>
    <path style="transform:translate(0, 0px); opacity:1" fill="url(#sw-gradient-0)"
        d="M0,75L30,77.5C60,80,120,85,180,72.5C240,60,300,30,360,25C420,20,480,40,540,55C600,70,660,80,720,77.5C780,75,840,60,900,65C960,70,1020,95,1080,102.5C1140,110,1200,100,1260,80C1320,60,1380,30,1440,22.5C1500,15,1560,30,1620,45C1680,60,1740,75,1800,80C1860,85,1920,80,1980,77.5C2040,75,2100,75,2160,82.5C2220,90,2280,105,2340,97.5C2400,90,2460,60,2520,50C2580,40,2640,50,2700,47.5C2760,45,2820,30,2880,37.5C2940,45,3000,75,3060,82.5C3120,90,3180,75,3240,67.5C3300,60,3360,60,3420,67.5C3480,75,3540,90,3600,82.5C3660,75,3720,45,3780,30C3840,15,3900,15,3960,30C4020,45,4080,75,4140,72.5C4200,70,4260,35,4290,17.5L4320,0L4320,150L4290,150C4260,150,4200,150,4140,150C4080,150,4020,150,3960,150C3900,150,3840,150,3780,150C3720,150,3660,150,3600,150C3540,150,3480,150,3420,150C3360,150,3300,150,3240,150C3180,150,3120,150,3060,150C3000,150,2940,150,2880,150C2820,150,2760,150,2700,150C2640,150,2580,150,2520,150C2460,150,2400,150,2340,150C2280,150,2220,150,2160,150C2100,150,2040,150,1980,150C1920,150,1860,150,1800,150C1740,150,1680,150,1620,150C1560,150,1500,150,1440,150C1380,150,1320,150,1260,150C1200,150,1140,150,1080,150C1020,150,960,150,900,150C840,150,780,150,720,150C660,150,600,150,540,150C480,150,420,150,360,150C300,150,240,150,180,150C120,150,60,150,30,150L0,150Z"></path>
</svg>